<svg width="24" height="24" viewBox="0 0 24 24" fill="none" xmlns="http://www.w3.org/2000/svg">
<path d="M14.3206 19.07C14.3206 19.68 13.9205 20.48 13.4105 20.79L12.0006 21.7C10.6906 22.51 8.87055 21.6 8.87055 19.98V14.63C8.87055 13.92 8.47055 13.01 8.06055 12.51L4.22052 8.47C3.71052 7.96 3.31055 7.06001 3.31055 6.45001V4.13C3.31055 2.92 4.22057 2.01001 5.33057 2.01001H18.6705C19.7805 2.01001 20.6906 2.92 20.6906 4.03V6.25C20.6906 7.06 20.1806 8.07001 19.6806 8.57001" stroke="#C2C5D1" stroke-width="1.5" stroke-miterlimit="10" stroke-linecap="round" stroke-linejoin="round"/>
<path d="M16.0701 16.52C17.8374 16.52 19.2701 15.0873 19.2701 13.32C19.2701 11.5527 17.8374 10.12 16.0701 10.12C14.3028 10.12 12.8701 11.5527 12.8701 13.32C12.8701 15.0873 14.3028 16.52 16.0701 16.52Z" stroke="#C2C5D1" stroke-width="1.5" stroke-linecap="round" stroke-linejoin="round"/>
<path d="M19.8701 17.12L18.8701 16.12" stroke="#C2C5D1" stroke-width="1.5" stroke-linecap="round" stroke-linejoin="round"/>
</svg>
